<svg width="512" height="512" viewBox="0 0 512 512" fill="none" xmlns="http://www.w3.org/2000/svg">
<rect width="512" height="512" fill="#E6F3F7"/>
<path d="M170 147C170 127.67 185.67 112 205 112H273C292.33 112 308 127.67 308 147V266.5C308 306.22 275.72 338.5 236 338.5C196.28 338.5 164 306.22 164 266.5V237C164 217.67 179.67 202 199 202H236C255.33 202 271 217.67 271 237V266.5C271 285.83 255.33 301.5 236 301.5C216.67 301.5 201 285.83 201 266.5V237C201 238.1 201.9 239 203 239H236C234.9 239 234 238.1 234 237V266.5C234 267.6 234.9 268.5 236 268.5C237.1 268.5 238 267.6 238 266.5V237C238 235.9 237.1 235 236 235H203C201.9 235 201 235.9 201 237V266.5C201 287.93 218.57 305.5 240 305.5C261.43 305.5 279 287.93 279 266.5V237C279 215.57 261.43 198 240 198H203C181.57 198 164 215.57 164 237V266.5C164 308.32 198.18 342.5 240 342.5C281.82 342.5 316 308.32 316 266.5V147C316 125.57 298.43 108 277 108H205C183.57 108 166 125.57 166 147V400C166 421.43 183.57 439 205 439H377C398.43 439 416 421.43 416 400V321.5C416 300.07 398.43 282.5 377 282.5H316V318.5H380V403H202V143H312V279.5H384C402.23 279.5 420 297.27 420 315.5V400C420 423.53 400.53 443 377 443H205C181.47 443 162 423.53 162 400V147C162 123.47 181.47 104 205 104H277C300.53 104 320 123.47 320 147V266.5C320 310.42 283.92 346.5 240 346.5C196.08 346.5 160 310.42 160 266.5V237C160 213.47 179.47 194 203 194H240C263.53 194 283 213.47 283 237V266.5C283 290.03 263.53 309.5 240 309.5C216.47 309.5 197 290.03 197 266.5V237C197 236.45 197.45 236 198 236H240C239.45 236 239 236.45 239 237V266.5C239 266.05 239.45 266.5 240 266.5C240.55 266.5 241 266.05 241 266.5V237C241 237.55 240.55 238 240 238H198C197.45 238 197 237.55 197 237V266.5" fill="url(#gradient)"/>
<defs>
<linearGradient id="gradient" x1="160" y1="104" x2="420" y2="443" gradientUnits="userSpaceOnUse">
<stop offset="0%" stop-color="#0F766E"/>
<stop offset="50%" stop-color="#0891B2"/>
<stop offset="100%" stop-color="#7C3AED"/>
</linearGradient>
</defs>
</svg>